<svg width="44" height="44" viewBox="0 0 44 44" fill="none" xmlns="http://www.w3.org/2000/svg">
<g clip-path="url(#clip0_351_24)">
<path d="M35.7499 23.0487L21.9999 36.6667L8.2499 23.0487C7.34296 22.1662 6.62858 21.1054 6.15174 19.9332C5.6749 18.7611 5.44593 17.5028 5.47925 16.2378C5.51258 14.9728 5.80747 13.7283 6.34536 12.5829C6.88325 11.4374 7.65248 10.4157 8.60463 9.58214C9.55677 8.74857 10.6712 8.12118 11.8777 7.73946C13.0843 7.35775 14.3567 7.22998 15.6151 7.36422C16.8734 7.49845 18.0903 7.89177 19.1892 8.51941C20.288 9.14705 21.245 9.99541 21.9999 11.0111C22.758 10.0028 23.7162 9.16183 24.8143 8.54086C25.9124 7.91988 27.1268 7.53224 28.3816 7.4022C29.6364 7.27216 30.9046 7.40253 32.1067 7.78513C33.3088 8.16774 34.419 8.79435 35.3677 9.62575C36.3165 10.4571 37.0835 11.4754 37.6207 12.6169C38.1578 13.7583 38.4536 14.9984 38.4895 16.2594C38.5253 17.5204 38.3005 18.7752 37.8292 19.9454C37.3578 21.1155 36.6499 22.1758 35.7499 23.0597" stroke="#2C3E50" stroke-width="2.75" stroke-linecap="round" stroke-linejoin="round"/>
<path d="M22.0002 11L15.963 17.0372C15.6193 17.381 15.4263 17.8472 15.4263 18.3333C15.4263 18.8195 15.6193 19.2857 15.963 19.6295L16.9585 20.625C18.2235 21.89 20.2769 21.89 21.5419 20.625L23.3752 18.7917C24.4692 17.6977 25.953 17.0831 27.5002 17.0831C29.0474 17.0831 30.5312 17.6977 31.6252 18.7917L35.7502 22.9167" stroke="#2C3E50" stroke-width="2.75" stroke-linecap="round" stroke-linejoin="round"/>
<path d="M22.9165 28.4167L26.5832 32.0834" stroke="#2C3E50" stroke-width="2.75" stroke-linecap="round" stroke-linejoin="round"/>
<path d="M27.5 23.8333L31.1667 27.4999" stroke="#2C3E50" stroke-width="2.75" stroke-linecap="round" stroke-linejoin="round"/>
</g>
<defs>
<clipPath id="clip0_351_24">
<rect width="44" height="44" fill="white"/>
</clipPath>
</defs>
</svg>
