<svg width="44" height="44" viewBox="0 0 44 44" fill="none" xmlns="http://www.w3.org/2000/svg">
<g clip-path="url(#clip0_351_31)">
<path d="M23.8335 9.16675H38.5002" stroke="#CDADEA" stroke-width="2.75" stroke-linecap="round" stroke-linejoin="round"/>
<path d="M23.8335 16.5H33.0002" stroke="#CDADEA" stroke-width="2.75" stroke-linecap="round" stroke-linejoin="round"/>
<path d="M23.8335 27.5H38.5002" stroke="#CDADEA" stroke-width="2.75" stroke-linecap="round" stroke-linejoin="round"/>
<path d="M23.8335 34.8333H33.0002" stroke="#CDADEA" stroke-width="2.75" stroke-linecap="round" stroke-linejoin="round"/>
<path d="M5.5 9.16659C5.5 8.68036 5.69315 8.21404 6.03697 7.87022C6.38079 7.52641 6.8471 7.33325 7.33333 7.33325H14.6667C15.1529 7.33325 15.6192 7.52641 15.963 7.87022C16.3068 8.21404 16.5 8.68036 16.5 9.16659V16.4999C16.5 16.9861 16.3068 17.4525 15.963 17.7963C15.6192 18.1401 15.1529 18.3333 14.6667 18.3333H7.33333C6.8471 18.3333 6.38079 18.1401 6.03697 17.7963C5.69315 17.4525 5.5 16.9861 5.5 16.4999V9.16659Z" stroke="#CDADEA" stroke-width="2.75" stroke-linecap="round" stroke-linejoin="round"/>
<path d="M5.5 27.5001C5.5 27.0139 5.69315 26.5475 6.03697 26.2037C6.38079 25.8599 6.8471 25.6667 7.33333 25.6667H14.6667C15.1529 25.6667 15.6192 25.8599 15.963 26.2037C16.3068 26.5475 16.5 27.0139 16.5 27.5001V34.8334C16.5 35.3196 16.3068 35.786 15.963 36.1298C15.6192 36.4736 15.1529 36.6667 14.6667 36.6667H7.33333C6.8471 36.6667 6.38079 36.4736 6.03697 36.1298C5.69315 35.786 5.5 35.3196 5.5 34.8334V27.5001Z" stroke="#CDADEA" stroke-width="2.75" stroke-linecap="round" stroke-linejoin="round"/>
</g>
<defs>
<clipPath id="clip0_351_31">
<rect width="44" height="44" fill="white"/>
</clipPath>
</defs>
</svg>
