<svg width="405" height="85" viewBox="0 0 405 85" fill="none" xmlns="http://www.w3.org/2000/svg">
<path d="M15.712 8.93203C15.712 8.93203 15.5307 8.82536 15.168 8.61203C14.8053 8.39869 14.3253 8.16403 13.728 7.90803C13.1307 7.63069 12.48 7.38536 11.776 7.17203C11.072 6.95869 10.3787 6.85203 9.696 6.85203C9.16267 6.85203 8.72533 6.93736 8.384 7.10803C8.04267 7.27869 7.872 7.56669 7.872 7.97203C7.872 8.35603 8.04267 8.66536 8.384 8.90003C8.72533 9.13469 9.20533 9.34803 9.824 9.54003C10.464 9.73203 11.2213 9.96669 12.096 10.244C13.504 10.6707 14.72 11.1614 15.744 11.716C16.768 12.2707 17.5573 12.9854 18.112 13.86C18.6667 14.7134 18.944 15.8547 18.944 17.284C18.944 18.6494 18.6987 19.8014 18.208 20.74C17.7173 21.6574 17.056 22.3934 16.224 22.948C15.392 23.5027 14.464 23.908 13.44 24.164C12.416 24.3987 11.3707 24.516 10.304 24.516C9.216 24.516 8.07467 24.4094 6.88 24.196C5.70667 23.9614 4.56533 23.652 3.456 23.268C2.34667 22.8627 1.33333 22.3934 0.416 21.86L3.104 16.388C3.104 16.388 3.31733 16.516 3.744 16.772C4.17067 17.028 4.736 17.316 5.44 17.636C6.144 17.956 6.92267 18.244 7.776 18.5C8.65067 18.756 9.52533 18.884 10.4 18.884C11.0827 18.884 11.552 18.7987 11.808 18.628C12.0853 18.436 12.224 18.1907 12.224 17.892C12.224 17.444 11.9893 17.1027 11.52 16.868C11.0507 16.612 10.432 16.3774 9.664 16.164C8.91733 15.9294 8.08533 15.6627 7.168 15.364C5.84533 14.916 4.75733 14.4147 3.904 13.86C3.05067 13.284 2.42133 12.612 2.016 11.844C1.61067 11.0547 1.408 10.1054 1.408 8.99603C1.408 7.31069 1.80267 5.90269 2.592 4.77203C3.38133 3.64136 4.416 2.78803 5.696 2.21203C6.99733 1.61469 8.39467 1.31603 9.888 1.31603C10.9973 1.31603 12.064 1.45469 13.088 1.73203C14.1333 1.98803 15.104 2.30803 16 2.69203C16.9173 3.07603 17.7173 3.43869 18.4 3.78003L15.712 8.93203ZM20.2018 19.14C20.2018 18.0094 20.5111 17.0174 21.1298 16.164C21.7484 15.2894 22.6018 14.6067 23.6898 14.116C24.7991 13.6254 26.0578 13.38 27.4658 13.38C28.1271 13.38 28.7458 13.4334 29.3218 13.54C29.9191 13.6467 30.4311 13.8067 30.8578 14.02V13.508C30.8578 12.7187 30.6231 12.132 30.1538 11.748C29.7058 11.364 28.9698 11.172 27.9458 11.172C27.0071 11.172 26.1218 11.332 25.2898 11.652C24.4791 11.9507 23.6258 12.3987 22.7298 12.996L20.9698 9.22003C22.1004 8.49469 23.2844 7.96136 24.5218 7.62003C25.7804 7.25736 27.1244 7.07603 28.5538 7.07603C31.2204 7.07603 33.2791 7.68403 34.7298 8.90003C36.2018 10.0947 36.9378 11.876 36.9378 14.244V17.508C36.9378 18.084 37.0231 18.4894 37.1938 18.724C37.3644 18.9374 37.6631 19.0654 38.0898 19.108V24.228C37.5991 24.3347 37.1298 24.4094 36.6818 24.452C36.2551 24.516 35.8711 24.548 35.5298 24.548C34.4418 24.548 33.6098 24.356 33.0338 23.972C32.4791 23.5667 32.1164 22.98 31.9458 22.212L31.8178 21.604C31.0711 22.564 30.2071 23.3 29.2258 23.812C28.2444 24.3027 27.1991 24.548 26.0898 24.548C24.9804 24.548 23.9778 24.3134 23.0818 23.844C22.1858 23.3747 21.4818 22.7347 20.9698 21.924C20.4578 21.092 20.2018 20.164 20.2018 19.14ZM30.0578 19.556C30.2924 19.3854 30.4844 19.204 30.6338 19.012C30.7831 18.7987 30.8578 18.5854 30.8578 18.372V17.124C30.5164 16.996 30.1218 16.8894 29.6738 16.804C29.2471 16.7187 28.8631 16.676 28.5218 16.676C27.7964 16.676 27.1778 16.8574 26.6658 17.22C26.1751 17.5827 25.9298 18.0414 25.9298 18.596C25.9298 18.8947 26.0151 19.172 26.1858 19.428C26.3564 19.6627 26.5911 19.8547 26.8898 20.004C27.1884 20.132 27.5298 20.196 27.9138 20.196C28.2764 20.196 28.6498 20.1427 29.0338 20.036C29.4391 19.908 29.7804 19.748 30.0578 19.556ZM40.286 24.228V7.39603H46.366V24.228H40.286ZM40.286 5.98803V0.868027H46.366V5.98803H40.286ZM60.1623 24.548C58.9036 24.548 57.8156 24.3027 56.8983 23.812C55.9809 23.3 55.2556 22.564 54.7223 21.604V24.228H49.4423V0.868027H55.5223V9.89203C56.0129 8.97469 56.7063 8.28136 57.6023 7.81203C58.4983 7.32136 59.5543 7.07603 60.7703 7.07603C61.7943 7.07603 62.7436 7.30003 63.6183 7.74803C64.4929 8.17469 65.2503 8.78269 65.8903 9.57203C66.5516 10.3614 67.0636 11.3 67.4263 12.388C67.7889 13.4547 67.9703 14.6174 67.9703 15.876C67.9703 17.1134 67.7676 18.2654 67.3623 19.332C66.9783 20.3774 66.4343 21.2947 65.7303 22.084C65.0476 22.8734 64.2263 23.4814 63.2663 23.908C62.3276 24.3347 61.2929 24.548 60.1623 24.548ZM58.4023 19.428C58.8929 19.428 59.3409 19.3427 59.7463 19.172C60.1516 19.0014 60.5036 18.7667 60.8023 18.468C61.1009 18.148 61.3249 17.7747 61.4743 17.348C61.6449 16.9214 61.7303 16.4414 61.7303 15.908C61.7303 15.2254 61.5916 14.6067 61.3143 14.052C61.0583 13.476 60.6956 13.028 60.2263 12.708C59.7783 12.3667 59.2556 12.196 58.6583 12.196C58.2316 12.196 57.8156 12.3027 57.4103 12.516C57.0049 12.7294 56.6316 13.028 56.2903 13.412C55.9703 13.7747 55.7143 14.2014 55.5223 14.692V17.7C55.7143 17.9774 55.9169 18.2334 56.1302 18.468C56.3649 18.6814 56.5996 18.8627 56.8343 19.012C57.0689 19.14 57.3143 19.2467 57.5703 19.332C57.8476 19.396 58.1249 19.428 58.4023 19.428ZM69.233 19.14C69.233 18.0094 69.5423 17.0174 70.161 16.164C70.7797 15.2894 71.633 14.6067 72.721 14.116C73.8303 13.6254 75.089 13.38 76.497 13.38C77.1583 13.38 77.777 13.4334 78.353 13.54C78.9503 13.6467 79.4623 13.8067 79.889 14.02V13.508C79.889 12.7187 79.6543 12.132 79.185 11.748C78.737 11.364 78.001 11.172 76.977 11.172C76.0383 11.172 75.153 11.332 74.321 11.652C73.5103 11.9507 72.657 12.3987 71.761 12.996L70.001 9.22003C71.1317 8.49469 72.3157 7.96136 73.553 7.62003C74.8117 7.25736 76.1557 7.07603 77.585 7.07603C80.2517 7.07603 82.3103 7.68403 83.761 8.90003C85.233 10.0947 85.969 11.876 85.969 14.244V17.508C85.969 18.084 86.0543 18.4894 86.225 18.724C86.3957 18.9374 86.6943 19.0654 87.121 19.108V24.228C86.6303 24.3347 86.161 24.4094 85.713 24.452C85.2863 24.516 84.9023 24.548 84.561 24.548C83.473 24.548 82.641 24.356 82.065 23.972C81.5103 23.5667 81.1477 22.98 80.977 22.212L80.849 21.604C80.1023 22.564 79.2383 23.3 78.257 23.812C77.2757 24.3027 76.2303 24.548 75.121 24.548C74.0117 24.548 73.009 24.3134 72.113 23.844C71.217 23.3747 70.513 22.7347 70.001 21.924C69.489 21.092 69.233 20.164 69.233 19.14ZM79.089 19.556C79.3237 19.3854 79.5157 19.204 79.665 19.012C79.8143 18.7987 79.889 18.5854 79.889 18.372V17.124C79.5477 16.996 79.153 16.8894 78.705 16.804C78.2783 16.7187 77.8943 16.676 77.553 16.676C76.8277 16.676 76.209 16.8574 75.697 17.22C75.2063 17.5827 74.961 18.0414 74.961 18.596C74.961 18.8947 75.0463 19.172 75.217 19.428C75.3877 19.6627 75.6223 19.8547 75.921 20.004C76.2197 20.132 76.561 20.196 76.945 20.196C77.3077 20.196 77.681 20.1427 78.065 20.036C78.4703 19.908 78.8117 19.748 79.089 19.556ZM104.793 24.548C103.321 24.548 102.009 24.324 100.857 23.876C99.7048 23.4067 98.7341 22.7774 97.9448 21.988C97.1768 21.1987 96.5901 20.292 96.1848 19.268C95.7794 18.244 95.5768 17.1667 95.5768 16.036C95.5768 14.4147 95.9288 12.932 96.6328 11.588C97.3368 10.2227 98.3714 9.13469 99.7368 8.32403C101.102 7.49203 102.787 7.07603 104.793 7.07603C106.798 7.07603 108.483 7.48136 109.849 8.29203C111.214 9.10269 112.249 10.1694 112.953 11.492C113.657 12.8147 114.009 14.2547 114.009 15.812C114.009 16.132 113.987 16.4627 113.945 16.804C113.923 17.124 113.891 17.412 113.849 17.668H102.041C102.083 18.2654 102.243 18.756 102.521 19.14C102.819 19.5027 103.182 19.7694 103.609 19.94C104.057 20.1107 104.515 20.196 104.985 20.196C105.646 20.196 106.265 20.0467 106.841 19.748C107.438 19.4494 107.833 19.0334 108.025 18.5L113.177 19.972C112.729 20.868 112.099 21.6574 111.289 22.34C110.499 23.0227 109.561 23.5667 108.473 23.972C107.385 24.356 106.158 24.548 104.793 24.548ZM101.913 14.02H107.481C107.417 13.4654 107.257 12.996 107.001 12.612C106.766 12.228 106.446 11.9294 106.041 11.716C105.657 11.5027 105.209 11.396 104.697 11.396C104.185 11.396 103.726 11.5027 103.321 11.716C102.937 11.9294 102.617 12.228 102.361 12.612C102.126 12.996 101.977 13.4654 101.913 14.02ZM119.957 7.39603L122.357 11.524L122.677 12.196L122.997 11.524L125.397 7.39603H131.573L126.165 15.716L131.733 24.228H125.557L122.965 20.1L122.677 19.46L122.389 20.1L119.797 24.228H113.62L119.189 15.876L113.78 7.39603H119.957ZM131.858 19.14C131.858 18.0094 132.167 17.0174 132.786 16.164C133.405 15.2894 134.258 14.6067 135.346 14.116C136.455 13.6254 137.714 13.38 139.122 13.38C139.783 13.38 140.402 13.4334 140.978 13.54C141.575 13.6467 142.087 13.8067 142.514 14.02V13.508C142.514 12.7187 142.279 12.132 141.81 11.748C141.362 11.364 140.626 11.172 139.602 11.172C138.663 11.172 137.778 11.332 136.946 11.652C136.135 11.9507 135.282 12.3987 134.386 12.996L132.626 9.22003C133.757 8.49469 134.941 7.96136 136.178 7.62003C137.437 7.25736 138.781 7.07603 140.21 7.07603C142.877 7.07603 144.935 7.68403 146.386 8.90003C147.858 10.0947 148.594 11.876 148.594 14.244V17.508C148.594 18.084 148.679 18.4894 148.85 18.724C149.021 18.9374 149.319 19.0654 149.746 19.108V24.228C149.255 24.3347 148.786 24.4094 148.338 24.452C147.911 24.516 147.527 24.548 147.186 24.548C146.098 24.548 145.266 24.356 144.69 23.972C144.135 23.5667 143.773 22.98 143.602 22.212L143.474 21.604C142.727 22.564 141.863 23.3 140.882 23.812C139.901 24.3027 138.855 24.548 137.746 24.548C136.637 24.548 135.634 24.3134 134.738 23.844C133.842 23.3747 133.138 22.7347 132.626 21.924C132.114 21.092 131.858 20.164 131.858 19.14ZM141.714 19.556C141.949 19.3854 142.141 19.204 142.29 19.012C142.439 18.7987 142.514 18.5854 142.514 18.372V17.124C142.173 16.996 141.778 16.8894 141.33 16.804C140.903 16.7187 140.519 16.676 140.178 16.676C139.453 16.676 138.834 16.8574 138.322 17.22C137.831 17.5827 137.586 18.0414 137.586 18.596C137.586 18.8947 137.671 19.172 137.842 19.428C138.013 19.6627 138.247 19.8547 138.546 20.004C138.845 20.132 139.186 20.196 139.57 20.196C139.933 20.196 140.306 20.1427 140.69 20.036C141.095 19.908 141.437 19.748 141.714 19.556ZM163.563 23.3C163.008 23.5347 162.411 23.7587 161.771 23.972C161.152 24.164 160.512 24.3134 159.851 24.42C159.211 24.5267 158.581 24.58 157.963 24.58C157.045 24.58 156.203 24.4307 155.435 24.132C154.667 23.812 154.048 23.3 153.579 22.596C153.131 21.8707 152.907 20.9 152.907 19.684V11.972H150.827V7.39603H152.907V2.11603H158.987V7.39603H162.283V11.972H158.987V17.54C158.987 18.0947 159.104 18.4894 159.339 18.724C159.573 18.9374 159.893 19.044 160.299 19.044C160.597 19.044 160.939 18.9907 161.323 18.884C161.707 18.7774 162.091 18.6494 162.475 18.5L163.563 23.3ZM164.358 19.14C164.358 18.0094 164.667 17.0174 165.286 16.164C165.905 15.2894 166.758 14.6067 167.846 14.116C168.955 13.6254 170.214 13.38 171.622 13.38C172.283 13.38 172.902 13.4334 173.478 13.54C174.075 13.6467 174.587 13.8067 175.014 14.02V13.508C175.014 12.7187 174.779 12.132 174.31 11.748C173.862 11.364 173.126 11.172 172.102 11.172C171.163 11.172 170.278 11.332 169.446 11.652C168.635 11.9507 167.782 12.3987 166.886 12.996L165.126 9.22003C166.257 8.49469 167.441 7.96136 168.678 7.62003C169.937 7.25736 171.281 7.07603 172.71 7.07603C175.377 7.07603 177.435 7.68403 178.886 8.90003C180.358 10.0947 181.094 11.876 181.094 14.244V17.508C181.094 18.084 181.179 18.4894 181.35 18.724C181.521 18.9374 181.819 19.0654 182.246 19.108V24.228C181.755 24.3347 181.286 24.4094 180.838 24.452C180.411 24.516 180.027 24.548 179.686 24.548C178.598 24.548 177.766 24.356 177.19 23.972C176.635 23.5667 176.273 22.98 176.102 22.212L175.974 21.604C175.227 22.564 174.363 23.3 173.382 23.812C172.401 24.3027 171.355 24.548 170.246 24.548C169.137 24.548 168.134 24.3134 167.238 23.844C166.342 23.3747 165.638 22.7347 165.126 21.924C164.614 21.092 164.358 20.164 164.358 19.14ZM174.214 19.556C174.449 19.3854 174.641 19.204 174.79 19.012C174.939 18.7987 175.014 18.5854 175.014 18.372V17.124C174.673 16.996 174.278 16.8894 173.83 16.804C173.403 16.7187 173.019 16.676 172.678 16.676C171.953 16.676 171.334 16.8574 170.822 17.22C170.331 17.5827 170.086 18.0414 170.086 18.596C170.086 18.8947 170.171 19.172 170.342 19.428C170.513 19.6627 170.747 19.8547 171.046 20.004C171.345 20.132 171.686 20.196 172.07 20.196C172.433 20.196 172.806 20.1427 173.19 20.036C173.595 19.908 173.937 19.748 174.214 19.556ZM211.578 24.228H205.498V14.756C205.498 13.924 205.328 13.3267 204.986 12.964C204.666 12.58 204.272 12.388 203.802 12.388C203.333 12.388 202.821 12.612 202.266 13.06C201.712 13.508 201.306 14.084 201.05 14.788V24.228H194.97V14.756C194.97 13.924 194.8 13.3267 194.458 12.964C194.138 12.58 193.744 12.388 193.274 12.388C192.805 12.388 192.293 12.612 191.738 13.06C191.184 13.508 190.778 14.084 190.522 14.788V24.228H184.442V7.39603H189.914V9.89203C190.512 8.97469 191.333 8.28136 192.378 7.81203C193.424 7.32136 194.661 7.07603 196.09 7.07603C197.477 7.07603 198.522 7.37469 199.226 7.97203C199.93 8.56936 200.4 9.24136 200.634 9.98803C201.232 9.07069 202.053 8.35603 203.098 7.84403C204.144 7.33203 205.317 7.07603 206.618 7.07603C207.728 7.07603 208.613 7.27869 209.274 7.68403C209.936 8.08936 210.426 8.61203 210.746 9.25203C211.088 9.89203 211.312 10.564 211.418 11.268C211.525 11.9507 211.578 12.58 211.578 13.156V24.228ZM222.824 24.548C221.352 24.548 220.04 24.324 218.888 23.876C217.736 23.4067 216.765 22.7774 215.976 21.988C215.208 21.1987 214.621 20.292 214.216 19.268C213.811 18.244 213.608 17.1667 213.608 16.036C213.608 14.4147 213.96 12.932 214.664 11.588C215.368 10.2227 216.403 9.13469 217.768 8.32403C219.133 7.49203 220.819 7.07603 222.824 7.07603C224.829 7.07603 226.515 7.48136 227.88 8.29203C229.245 9.10269 230.28 10.1694 230.984 11.492C231.688 12.8147 232.04 14.2547 232.04 15.812C232.04 16.132 232.019 16.4627 231.976 16.804C231.955 17.124 231.923 17.412 231.88 17.668H220.072C220.115 18.2654 220.275 18.756 220.552 19.14C220.851 19.5027 221.213 19.7694 221.64 19.94C222.088 20.1107 222.547 20.196 223.016 20.196C223.677 20.196 224.296 20.0467 224.872 19.748C225.469 19.4494 225.864 19.0334 226.056 18.5L231.208 19.972C230.76 20.868 230.131 21.6574 229.32 22.34C228.531 23.0227 227.592 23.5667 226.504 23.972C225.416 24.356 224.189 24.548 222.824 24.548ZM219.944 14.02H225.512C225.448 13.4654 225.288 12.996 225.032 12.612C224.797 12.228 224.477 11.9294 224.072 11.716C223.688 11.5027 223.24 11.396 222.728 11.396C222.216 11.396 221.757 11.5027 221.352 11.716C220.968 11.9294 220.648 12.228 220.392 12.612C220.157 12.996 220.008 13.4654 219.944 14.02ZM250.964 24.228H244.884V14.756C244.884 13.924 244.692 13.3267 244.308 12.964C243.945 12.58 243.519 12.388 243.028 12.388C242.687 12.388 242.324 12.4947 241.94 12.708C241.556 12.9 241.204 13.1774 240.884 13.54C240.564 13.9027 240.308 14.3187 240.116 14.788V24.228H234.036V7.39603H239.508V9.89203C239.913 9.27336 240.425 8.76136 241.044 8.35603C241.663 7.92936 242.377 7.60936 243.188 7.39603C243.999 7.18269 244.884 7.07603 245.844 7.07603C246.996 7.07603 247.913 7.27869 248.596 7.68403C249.279 8.08936 249.791 8.61203 250.132 9.25203C250.473 9.89203 250.697 10.564 250.804 11.268C250.911 11.9507 250.964 12.58 250.964 13.156V24.228ZM265.719 23.3C265.164 23.5347 264.567 23.7587 263.927 23.972C263.308 24.164 262.668 24.3134 262.007 24.42C261.367 24.5267 260.738 24.58 260.119 24.58C259.202 24.58 258.359 24.4307 257.591 24.132C256.823 23.812 256.204 23.3 255.735 22.596C255.287 21.8707 255.063 20.9 255.063 19.684V11.972H252.983V7.39603H255.063V2.11603H261.143V7.39603H264.439V11.972H261.143V17.54C261.143 18.0947 261.26 18.4894 261.495 18.724C261.73 18.9374 262.05 19.044 262.455 19.044C262.754 19.044 263.095 18.9907 263.479 18.884C263.863 18.7774 264.247 18.6494 264.631 18.5L265.719 23.3ZM275.543 24.548C274.071 24.548 272.759 24.324 271.607 23.876C270.455 23.4067 269.484 22.7774 268.695 21.988C267.927 21.1987 267.34 20.292 266.935 19.268C266.529 18.244 266.327 17.1667 266.327 16.036C266.327 14.4147 266.679 12.932 267.383 11.588C268.087 10.2227 269.121 9.13469 270.487 8.32403C271.852 7.49203 273.537 7.07603 275.543 7.07603C277.548 7.07603 279.233 7.48136 280.599 8.29203C281.964 9.10269 282.999 10.1694 283.703 11.492C284.407 12.8147 284.759 14.2547 284.759 15.812C284.759 16.132 284.737 16.4627 284.695 16.804C284.673 17.124 284.641 17.412 284.599 17.668H272.791C272.833 18.2654 272.993 18.756 273.271 19.14C273.569 19.5027 273.932 19.7694 274.359 19.94C274.807 20.1107 275.265 20.196 275.735 20.196C276.396 20.196 277.015 20.0467 277.591 19.748C278.188 19.4494 278.583 19.0334 278.775 18.5L283.927 19.972C283.479 20.868 282.849 21.6574 282.039 22.34C281.249 23.0227 280.311 23.5667 279.223 23.972C278.135 24.356 276.908 24.548 275.543 24.548ZM272.663 14.02H278.231C278.167 13.4654 278.007 12.996 277.751 12.612C277.516 12.228 277.196 11.9294 276.791 11.716C276.407 11.5027 275.959 11.396 275.447 11.396C274.935 11.396 274.476 11.5027 274.071 11.716C273.687 11.9294 273.367 12.228 273.111 12.612C272.876 12.996 272.727 13.4654 272.663 14.02ZM300.246 24.548C299.222 24.548 298.273 24.3347 297.398 23.908C296.524 23.46 295.756 22.8414 295.094 22.052C294.454 21.2627 293.953 20.3347 293.59 19.268C293.249 18.18 293.078 17.0067 293.078 15.748C293.078 14.4894 293.27 13.3374 293.654 12.292C294.038 11.2467 294.582 10.3294 295.286 9.54003C295.99 8.75069 296.812 8.14269 297.75 7.71603C298.71 7.28936 299.745 7.07603 300.854 7.07603C302.113 7.07603 303.18 7.33203 304.054 7.84403C304.95 8.35603 305.697 9.07069 306.294 9.98803V7.39603H311.574V31.076H305.494V21.732C304.513 23.6094 302.764 24.548 300.246 24.548ZM302.614 19.428C302.998 19.428 303.361 19.364 303.702 19.236C304.044 19.108 304.364 18.916 304.662 18.66C304.961 18.404 305.238 18.084 305.494 17.7V14.692C305.345 14.3294 305.153 13.9987 304.918 13.7C304.705 13.38 304.46 13.1134 304.182 12.9C303.905 12.6654 303.606 12.4947 303.286 12.388C302.988 12.26 302.678 12.196 302.358 12.196C301.91 12.196 301.494 12.292 301.11 12.484C300.748 12.676 300.428 12.9427 300.15 13.284C299.873 13.6254 299.66 14.02 299.51 14.468C299.361 14.916 299.286 15.396 299.286 15.908C299.286 16.612 299.425 17.2307 299.702 17.764C299.98 18.276 300.364 18.6814 300.854 18.98C301.366 19.2787 301.953 19.428 302.614 19.428ZM314.501 18.468V7.39603H320.581V17.092C320.581 17.8174 320.741 18.3934 321.061 18.82C321.402 19.2254 321.861 19.428 322.437 19.428C322.757 19.428 323.077 19.3854 323.397 19.3C323.717 19.2147 324.037 19.044 324.357 18.788C324.698 18.532 325.029 18.1694 325.349 17.7V7.39603H331.429V17.508C331.429 18.084 331.514 18.4894 331.685 18.724C331.856 18.9374 332.154 19.0654 332.581 19.108V24.228C332.048 24.3347 331.568 24.4094 331.141 24.452C330.714 24.516 330.341 24.548 330.021 24.548C328.997 24.548 328.186 24.356 327.589 23.972C326.992 23.588 326.608 23.0014 326.437 22.212L326.309 21.604C325.52 22.6494 324.57 23.4067 323.461 23.876C322.373 24.324 321.136 24.548 319.749 24.548C318.064 24.548 316.762 24.0254 315.845 22.98C314.949 21.9347 314.501 20.4307 314.501 18.468ZM334.139 19.14C334.139 18.0094 334.449 17.0174 335.067 16.164C335.686 15.2894 336.539 14.6067 337.627 14.116C338.737 13.6254 339.995 13.38 341.403 13.38C342.065 13.38 342.683 13.4334 343.259 13.54C343.857 13.6467 344.369 13.8067 344.795 14.02V13.508C344.795 12.7187 344.561 12.132 344.091 11.748C343.643 11.364 342.907 11.172 341.883 11.172C340.945 11.172 340.059 11.332 339.227 11.652C338.417 11.9507 337.563 12.3987 336.667 12.996L334.907 9.22003C336.038 8.49469 337.222 7.96136 338.459 7.62003C339.718 7.25736 341.062 7.07603 342.491 7.07603C345.158 7.07603 347.217 7.68403 348.667 8.90003C350.139 10.0947 350.875 11.876 350.875 14.244V17.508C350.875 18.084 350.961 18.4894 351.131 18.724C351.302 18.9374 351.601 19.0654 352.027 19.108V24.228C351.537 24.3347 351.067 24.4094 350.619 24.452C350.193 24.516 349.809 24.548 349.467 24.548C348.379 24.548 347.547 24.356 346.971 23.972C346.417 23.5667 346.054 22.98 345.883 22.212L345.755 21.604C345.009 22.564 344.145 23.3 343.163 23.812C342.182 24.3027 341.137 24.548 340.027 24.548C338.918 24.548 337.915 24.3134 337.019 23.844C336.123 23.3747 335.419 22.7347 334.907 21.924C334.395 21.092 334.139 20.164 334.139 19.14ZM343.995 19.556C344.23 19.3854 344.422 19.204 344.571 19.012C344.721 18.7987 344.795 18.5854 344.795 18.372V17.124C344.454 16.996 344.059 16.8894 343.611 16.804C343.185 16.7187 342.801 16.676 342.459 16.676C341.734 16.676 341.115 16.8574 340.603 17.22C340.113 17.5827 339.867 18.0414 339.867 18.596C339.867 18.8947 339.953 19.172 340.123 19.428C340.294 19.6627 340.529 19.8547 340.827 20.004C341.126 20.132 341.467 20.196 341.851 20.196C342.214 20.196 342.587 20.1427 342.971 20.036C343.377 19.908 343.718 19.748 343.995 19.556ZM371.152 24.228H365.072V14.756C365.072 13.924 364.88 13.3267 364.496 12.964C364.133 12.58 363.706 12.388 363.216 12.388C362.874 12.388 362.512 12.4947 362.128 12.708C361.744 12.9 361.392 13.1774 361.072 13.54C360.752 13.9027 360.496 14.3187 360.304 14.788V24.228H354.224V7.39603H359.696V9.89203C360.101 9.27336 360.613 8.76136 361.232 8.35603C361.85 7.92936 362.565 7.60936 363.376 7.39603C364.186 7.18269 365.072 7.07603 366.032 7.07603C367.184 7.07603 368.101 7.27869 368.784 7.68403C369.466 8.08936 369.978 8.61203 370.319 9.25203C370.661 9.89203 370.885 10.564 370.992 11.268C371.098 11.9507 371.152 12.58 371.152 13.156V24.228ZM385.907 23.3C385.352 23.5347 384.755 23.7587 384.115 23.972C383.496 24.164 382.856 24.3134 382.195 24.42C381.555 24.5267 380.925 24.58 380.307 24.58C379.389 24.58 378.547 24.4307 377.779 24.132C377.011 23.812 376.392 23.3 375.923 22.596C375.475 21.8707 375.251 20.9 375.251 19.684V11.972H373.171V7.39603H375.251V2.11603H381.331V7.39603H384.627V11.972H381.331V17.54C381.331 18.0947 381.448 18.4894 381.683 18.724C381.917 18.9374 382.237 19.044 382.643 19.044C382.941 19.044 383.283 18.9907 383.667 18.884C384.051 18.7774 384.435 18.6494 384.819 18.5L385.907 23.3ZM395.73 24.548C394.237 24.548 392.914 24.3134 391.762 23.844C390.61 23.3747 389.64 22.7347 388.85 21.924C388.082 21.092 387.496 20.1534 387.09 19.108C386.706 18.0627 386.514 16.964 386.514 15.812C386.514 14.66 386.706 13.5614 387.09 12.516C387.496 11.4494 388.082 10.5107 388.85 9.70003C389.64 8.88936 390.61 8.24936 391.762 7.78003C392.914 7.31069 394.237 7.07603 395.73 7.07603C397.245 7.07603 398.568 7.31069 399.698 7.78003C400.85 8.24936 401.81 8.88936 402.578 9.70003C403.368 10.5107 403.954 11.4494 404.338 12.516C404.744 13.5614 404.946 14.66 404.946 15.812C404.946 16.964 404.744 18.0627 404.338 19.108C403.954 20.1534 403.368 21.092 402.578 21.924C401.81 22.7347 400.85 23.3747 399.698 23.844C398.568 24.3134 397.245 24.548 395.73 24.548ZM392.754 15.812C392.754 16.5587 392.882 17.2094 393.138 17.764C393.394 18.2974 393.746 18.7134 394.194 19.012C394.642 19.2894 395.154 19.428 395.73 19.428C396.306 19.428 396.818 19.2894 397.266 19.012C397.714 18.7134 398.066 18.2974 398.322 17.764C398.578 17.2094 398.706 16.5587 398.706 15.812C398.706 15.0654 398.578 14.4254 398.322 13.892C398.066 13.3374 397.714 12.9214 397.266 12.644C396.818 12.3454 396.306 12.196 395.73 12.196C395.154 12.196 394.642 12.3454 394.194 12.644C393.746 12.9214 393.394 13.3374 393.138 13.892C392.882 14.4254 392.754 15.0654 392.754 15.812ZM13.344 53.3C12.7893 53.5347 12.192 53.7587 11.552 53.972C10.9333 54.164 10.2933 54.3134 9.632 54.42C8.992 54.5267 8.36267 54.58 7.744 54.58C6.82667 54.58 5.984 54.4307 5.216 54.132C4.448 53.812 3.82933 53.3 3.36 52.596C2.912 51.8707 2.688 50.9 2.688 49.684V41.972H0.608V37.396H2.688V32.116H8.768V37.396H12.064V41.972H8.768V47.54C8.768 48.0947 8.88533 48.4894 9.12 48.724C9.35467 48.9374 9.67467 49.044 10.08 49.044C10.3787 49.044 10.72 48.9907 11.104 48.884C11.488 48.7774 11.872 48.6494 12.256 48.5L13.344 53.3ZM23.1678 54.548C21.6958 54.548 20.3838 54.324 19.2318 53.876C18.0798 53.4067 17.1091 52.7774 16.3198 51.988C15.5518 51.1987 14.9651 50.292 14.5598 49.268C14.1544 48.244 13.9518 47.1667 13.9518 46.036C13.9518 44.4147 14.3038 42.932 15.0078 41.588C15.7118 40.2227 16.7464 39.1347 18.1118 38.324C19.4771 37.492 21.1624 37.076 23.1678 37.076C25.1731 37.076 26.8584 37.4814 28.2238 38.292C29.5891 39.1027 30.6238 40.1694 31.3278 41.492C32.0318 42.8147 32.3838 44.2547 32.3838 45.812C32.3838 46.132 32.3624 46.4627 32.3198 46.804C32.2984 47.124 32.2664 47.412 32.2238 47.668H20.4158C20.4584 48.2654 20.6184 48.756 20.8958 49.14C21.1944 49.5027 21.5571 49.7694 21.9838 49.94C22.4318 50.1107 22.8904 50.196 23.3598 50.196C24.0211 50.196 24.6398 50.0467 25.2158 49.748C25.8131 49.4494 26.2078 49.0334 26.3998 48.5L31.5518 49.972C31.1038 50.868 30.4744 51.6574 29.6638 52.34C28.8744 53.0227 27.9358 53.5667 26.8478 53.972C25.7598 54.356 24.5331 54.548 23.1678 54.548ZM20.2878 44.02H25.8558C25.7918 43.4654 25.6318 42.996 25.3758 42.612C25.1411 42.228 24.8211 41.9294 24.4158 41.716C24.0318 41.5027 23.5838 41.396 23.0718 41.396C22.5598 41.396 22.1011 41.5027 21.6958 41.716C21.3118 41.9294 20.9918 42.228 20.7358 42.612C20.5011 42.996 20.3518 43.4654 20.2878 44.02ZM61.5158 54.228H55.4358V44.756C55.4358 43.924 55.2651 43.3267 54.9238 42.964C54.6038 42.58 54.2091 42.388 53.7398 42.388C53.2704 42.388 52.7584 42.612 52.2038 43.06C51.6491 43.508 51.2438 44.084 50.9878 44.788V54.228H44.9078V44.756C44.9078 43.924 44.7371 43.3267 44.3958 42.964C44.0758 42.58 43.6811 42.388 43.2118 42.388C42.7424 42.388 42.2304 42.612 41.6758 43.06C41.1211 43.508 40.7158 44.084 40.4598 44.788V54.228H34.3798V37.396H39.8518V39.892C40.4491 38.9747 41.2704 38.2814 42.3158 37.812C43.3611 37.3214 44.5984 37.076 46.0278 37.076C47.4144 37.076 48.4598 37.3747 49.1638 37.972C49.8678 38.5694 50.3371 39.2414 50.5718 39.988C51.1691 39.0707 51.9904 38.356 53.0358 37.844C54.0811 37.332 55.2544 37.076 56.5558 37.076C57.6651 37.076 58.5504 37.2787 59.2118 37.684C59.8731 38.0894 60.3638 38.612 60.6838 39.252C61.0251 39.892 61.2491 40.564 61.3558 41.268C61.4624 41.9507 61.5158 42.58 61.5158 43.156V54.228ZM75.8015 54.548C74.5855 54.548 73.5295 54.3134 72.6335 53.844C71.7375 53.3534 71.0442 52.6494 70.5535 51.732V61.044H64.4735V37.396H69.7535V39.924C70.3508 39.0067 71.0868 38.3027 71.9615 37.812C72.8575 37.3214 73.9348 37.076 75.1935 37.076C76.3242 37.076 77.3588 37.2894 78.2975 37.716C79.2362 38.1427 80.0575 38.7507 80.7615 39.54C81.4655 40.3294 82.0095 41.2467 82.3935 42.292C82.7775 43.3374 82.9695 44.4894 82.9695 45.748C82.9695 47.4334 82.6602 48.9374 82.0415 50.26C81.4228 51.5827 80.5695 52.628 79.4815 53.396C78.4148 54.164 77.1882 54.548 75.8015 54.548ZM73.6895 49.428C74.1375 49.428 74.5428 49.332 74.9055 49.14C75.2895 48.948 75.6202 48.6814 75.8975 48.34C76.1748 47.9987 76.3882 47.604 76.5375 47.156C76.6868 46.708 76.7615 46.228 76.7615 45.716C76.7615 45.1827 76.6762 44.7027 76.5055 44.276C76.3562 43.8494 76.1322 43.4867 75.8335 43.188C75.5348 42.868 75.1828 42.6227 74.7775 42.452C74.3722 42.2814 73.9242 42.196 73.4335 42.196C73.1562 42.196 72.8788 42.2387 72.6015 42.324C72.3455 42.388 72.1002 42.4947 71.8655 42.644C71.6308 42.772 71.3962 42.9427 71.1615 43.156C70.9482 43.3694 70.7455 43.6254 70.5535 43.924V46.836C70.7455 47.3267 71.0015 47.7747 71.3215 48.18C71.6628 48.564 72.0362 48.8734 72.4415 49.108C72.8468 49.3214 73.2628 49.428 73.6895 49.428ZM93.4803 54.548C91.9869 54.548 90.6643 54.3134 89.5123 53.844C88.3603 53.3747 87.3896 52.7347 86.6003 51.924C85.8323 51.092 85.2456 50.1534 84.8403 49.108C84.4563 48.0627 84.2643 46.964 84.2643 45.812C84.2643 44.66 84.4563 43.5614 84.8403 42.516C85.2456 41.4494 85.8323 40.5107 86.6003 39.7C87.3896 38.8894 88.3603 38.2494 89.5123 37.78C90.6643 37.3107 91.9869 37.076 93.4803 37.076C94.9949 37.076 96.3176 37.3107 97.4483 37.78C98.6003 38.2494 99.5603 38.8894 100.328 39.7C101.118 40.5107 101.704 41.4494 102.088 42.516C102.494 43.5614 102.696 44.66 102.696 45.812C102.696 46.964 102.494 48.0627 102.088 49.108C101.704 50.1534 101.118 51.092 100.328 51.924C99.5603 52.7347 98.6003 53.3747 97.4483 53.844C96.3176 54.3134 94.9949 54.548 93.4803 54.548ZM90.5043 45.812C90.5043 46.5587 90.6323 47.2094 90.8883 47.764C91.1443 48.2974 91.4963 48.7134 91.9443 49.012C92.3923 49.2894 92.9043 49.428 93.4803 49.428C94.0563 49.428 94.5683 49.2894 95.0163 49.012C95.4643 48.7134 95.8163 48.2974 96.0723 47.764C96.3283 47.2094 96.4563 46.5587 96.4563 45.812C96.4563 45.0654 96.3283 44.4254 96.0723 43.892C95.8163 43.3374 95.4643 42.9214 95.0163 42.644C94.5683 42.3454 94.0563 42.196 93.4803 42.196C92.9043 42.196 92.3923 42.3454 91.9443 42.644C91.4963 42.9214 91.1443 43.3374 90.8883 43.892C90.6323 44.4254 90.5043 45.0654 90.5043 45.812ZM118.788 54.548C117.316 54.548 115.865 54.3134 114.436 53.844C113.028 53.3534 111.833 52.6494 110.852 51.732L112.932 47.988C113.977 48.6707 114.98 49.204 115.94 49.588C116.921 49.972 117.807 50.164 118.596 50.164C119.044 50.164 119.375 50.1107 119.588 50.004C119.801 49.876 119.908 49.6734 119.908 49.396C119.908 49.204 119.833 49.044 119.684 48.916C119.535 48.788 119.289 48.66 118.948 48.532C118.628 48.404 118.212 48.2654 117.7 48.116C116.377 47.6467 115.268 47.2094 114.372 46.804C113.497 46.3987 112.836 45.908 112.388 45.332C111.961 44.7347 111.748 43.9454 111.748 42.964C111.748 41.812 112.036 40.7987 112.612 39.924C113.188 39.028 114.009 38.324 115.076 37.812C116.164 37.3 117.465 37.044 118.98 37.044C120.111 37.044 121.241 37.2254 122.372 37.588C123.524 37.9294 124.633 38.5587 125.7 39.476L123.396 43.188C122.329 42.5267 121.423 42.0574 120.676 41.78C119.951 41.5027 119.3 41.364 118.724 41.364C118.447 41.364 118.201 41.396 117.988 41.46C117.796 41.524 117.647 41.62 117.54 41.748C117.433 41.876 117.38 42.0467 117.38 42.26C117.38 42.4734 117.455 42.6547 117.604 42.804C117.753 42.932 117.988 43.06 118.308 43.188C118.628 43.2947 119.033 43.4227 119.524 43.572C120.975 43.9987 122.159 44.436 123.076 44.884C123.993 45.3107 124.665 45.8334 125.092 46.452C125.54 47.0707 125.764 47.8814 125.764 48.884C125.764 50.6547 125.135 52.0414 123.876 53.044C122.639 54.0467 120.943 54.548 118.788 54.548ZM127.907 48.468V37.396H133.987V47.092C133.987 47.8174 134.147 48.3934 134.467 48.82C134.809 49.2254 135.267 49.428 135.843 49.428C136.163 49.428 136.483 49.3854 136.803 49.3C137.123 49.2147 137.443 49.044 137.763 48.788C138.105 48.532 138.435 48.1694 138.755 47.7V37.396H144.835V47.508C144.835 48.084 144.921 48.4894 145.091 48.724C145.262 48.9374 145.561 49.0654 145.987 49.108V54.228C145.454 54.3347 144.974 54.4094 144.547 54.452C144.121 54.516 143.747 54.548 143.427 54.548C142.403 54.548 141.593 54.356 140.995 53.972C140.398 53.588 140.014 53.0014 139.843 52.212L139.715 51.604C138.926 52.6494 137.977 53.4067 136.867 53.876C135.779 54.324 134.542 54.548 133.155 54.548C131.47 54.548 130.169 54.0254 129.251 52.98C128.355 51.9347 127.907 50.4307 127.907 48.468ZM147.546 49.14C147.546 48.0094 147.855 47.0174 148.474 46.164C149.092 45.2894 149.946 44.6067 151.034 44.116C152.143 43.6254 153.402 43.38 154.81 43.38C155.471 43.38 156.09 43.4334 156.666 43.54C157.263 43.6467 157.775 43.8067 158.202 44.02V43.508C158.202 42.7187 157.967 42.132 157.498 41.748C157.05 41.364 156.314 41.172 155.29 41.172C154.351 41.172 153.466 41.332 152.634 41.652C151.823 41.9507 150.97 42.3987 150.074 42.996L148.314 39.22C149.444 38.4947 150.628 37.9614 151.866 37.62C153.124 37.2574 154.468 37.076 155.898 37.076C158.564 37.076 160.623 37.684 162.074 38.9C163.546 40.0947 164.282 41.876 164.282 44.244V47.508C164.282 48.084 164.367 48.4894 164.538 48.724C164.708 48.9374 165.007 49.0654 165.434 49.108V54.228C164.943 54.3347 164.474 54.4094 164.026 54.452C163.599 54.516 163.215 54.548 162.874 54.548C161.786 54.548 160.954 54.356 160.378 53.972C159.823 53.5667 159.46 52.98 159.29 52.212L159.162 51.604C158.415 52.564 157.551 53.3 156.57 53.812C155.588 54.3027 154.543 54.548 153.434 54.548C152.324 54.548 151.322 54.3134 150.426 53.844C149.53 53.3747 148.826 52.7347 148.314 51.924C147.802 51.092 147.546 50.164 147.546 49.14ZM157.402 49.556C157.636 49.3854 157.828 49.204 157.978 49.012C158.127 48.7987 158.202 48.5854 158.202 48.372V47.124C157.86 46.996 157.466 46.8894 157.018 46.804C156.591 46.7187 156.207 46.676 155.866 46.676C155.14 46.676 154.522 46.8574 154.01 47.22C153.519 47.5827 153.274 48.0414 153.274 48.596C153.274 48.8947 153.359 49.172 153.53 49.428C153.7 49.6627 153.935 49.8547 154.234 50.004C154.532 50.132 154.874 50.196 155.258 50.196C155.62 50.196 155.994 50.1427 156.378 50.036C156.783 49.908 157.124 49.748 157.402 49.556ZM183.105 54.548C181.633 54.548 180.321 54.324 179.169 53.876C178.017 53.4067 177.047 52.7774 176.257 51.988C175.489 51.1987 174.903 50.292 174.497 49.268C174.092 48.244 173.889 47.1667 173.889 46.036C173.889 44.4147 174.241 42.932 174.945 41.588C175.649 40.2227 176.684 39.1347 178.049 38.324C179.415 37.492 181.1 37.076 183.105 37.076C185.111 37.076 186.796 37.4814 188.161 38.292C189.527 39.1027 190.561 40.1694 191.265 41.492C191.969 42.8147 192.321 44.2547 192.321 45.812C192.321 46.132 192.3 46.4627 192.257 46.804C192.236 47.124 192.204 47.412 192.161 47.668H180.353C180.396 48.2654 180.556 48.756 180.833 49.14C181.132 49.5027 181.495 49.7694 181.921 49.94C182.369 50.1107 182.828 50.196 183.297 50.196C183.959 50.196 184.577 50.0467 185.153 49.748C185.751 49.4494 186.145 49.0334 186.337 48.5L191.489 49.972C191.041 50.868 190.412 51.6574 189.601 52.34C188.812 53.0227 187.873 53.5667 186.785 53.972C185.697 54.356 184.471 54.548 183.105 54.548ZM180.225 44.02H185.793C185.729 43.4654 185.569 42.996 185.313 42.612C185.079 42.228 184.759 41.9294 184.353 41.716C183.969 41.5027 183.521 41.396 183.009 41.396C182.497 41.396 182.039 41.5027 181.633 41.716C181.249 41.9294 180.929 42.228 180.673 42.612C180.439 42.996 180.289 43.4654 180.225 44.02ZM200.621 54.548C199.597 54.548 198.648 54.3347 197.773 53.908C196.899 53.46 196.131 52.8414 195.469 52.052C194.829 51.2627 194.328 50.3347 193.965 49.268C193.624 48.18 193.453 47.0067 193.453 45.748C193.453 44.4894 193.645 43.3374 194.029 42.292C194.413 41.2467 194.957 40.3294 195.661 39.54C196.365 38.7507 197.187 38.1427 198.125 37.716C199.085 37.2894 200.12 37.076 201.229 37.076C202.488 37.076 203.555 37.332 204.429 37.844C205.325 38.356 206.072 39.0707 206.669 39.988V37.396H211.949V61.076H205.869V51.732C204.888 53.6094 203.139 54.548 200.621 54.548ZM202.989 49.428C203.373 49.428 203.736 49.364 204.077 49.236C204.419 49.108 204.739 48.916 205.037 48.66C205.336 48.404 205.613 48.084 205.869 47.7V44.692C205.72 44.3294 205.528 43.9987 205.293 43.7C205.08 43.38 204.835 43.1134 204.557 42.9C204.28 42.6654 203.981 42.4947 203.661 42.388C203.363 42.26 203.053 42.196 202.733 42.196C202.285 42.196 201.869 42.292 201.485 42.484C201.123 42.676 200.803 42.9427 200.525 43.284C200.248 43.6254 200.035 44.02 199.885 44.468C199.736 44.916 199.661 45.396 199.661 45.908C199.661 46.612 199.8 47.2307 200.077 47.764C200.355 48.276 200.739 48.6814 201.229 48.98C201.741 49.2787 202.328 49.428 202.989 49.428ZM214.876 48.468V37.396H220.956V47.092C220.956 47.8174 221.116 48.3934 221.436 48.82C221.777 49.2254 222.236 49.428 222.812 49.428C223.132 49.428 223.452 49.3854 223.772 49.3C224.092 49.2147 224.412 49.044 224.732 48.788C225.073 48.532 225.404 48.1694 225.724 47.7V37.396H231.804V47.508C231.804 48.084 231.889 48.4894 232.06 48.724C232.231 48.9374 232.529 49.0654 232.956 49.108V54.228C232.423 54.3347 231.943 54.4094 231.516 54.452C231.089 54.516 230.716 54.548 230.396 54.548C229.372 54.548 228.561 54.356 227.964 53.972C227.367 53.588 226.983 53.0014 226.812 52.212L226.684 51.604C225.895 52.6494 224.945 53.4067 223.836 53.876C222.748 54.324 221.511 54.548 220.124 54.548C218.439 54.548 217.137 54.0254 216.22 52.98C215.324 51.9347 214.876 50.4307 214.876 48.468ZM235.442 54.228V37.396H241.522V54.228H235.442ZM235.442 35.988V30.868H241.522V35.988H235.442ZM255.927 54.548C254.711 54.548 253.655 54.3134 252.759 53.844C251.863 53.3534 251.169 52.6494 250.679 51.732V61.044H244.599V37.396H249.879V39.924C250.476 39.0067 251.212 38.3027 252.087 37.812C252.983 37.3214 254.06 37.076 255.319 37.076C256.449 37.076 257.484 37.2894 258.423 37.716C259.361 38.1427 260.183 38.7507 260.887 39.54C261.591 40.3294 262.135 41.2467 262.519 42.292C262.903 43.3374 263.095 44.4894 263.095 45.748C263.095 47.4334 262.785 48.9374 262.167 50.26C261.548 51.5827 260.695 52.628 259.607 53.396C258.54 54.164 257.313 54.548 255.927 54.548ZM253.815 49.428C254.263 49.428 254.668 49.332 255.031 49.14C255.415 48.948 255.745 48.6814 256.023 48.34C256.3 47.9987 256.513 47.604 256.663 47.156C256.812 46.708 256.887 46.228 256.887 45.716C256.887 45.1827 256.801 44.7027 256.631 44.276C256.481 43.8494 256.257 43.4867 255.959 43.188C255.66 42.868 255.308 42.6227 254.903 42.452C254.497 42.2814 254.049 42.196 253.559 42.196C253.281 42.196 253.004 42.2387 252.727 42.324C252.471 42.388 252.225 42.4947 251.991 42.644C251.756 42.772 251.521 42.9427 251.286 43.156C251.073 43.3694 250.871 43.6254 250.679 43.924V46.836C250.871 47.3267 251.127 47.7747 251.447 48.18C251.788 48.564 252.161 48.8734 252.567 49.108C252.972 49.3214 253.388 49.428 253.815 49.428ZM273.605 54.548C272.133 54.548 270.821 54.324 269.669 53.876C268.517 53.4067 267.547 52.7774 266.757 51.988C265.989 51.1987 265.403 50.292 264.997 49.268C264.592 48.244 264.389 47.1667 264.389 46.036C264.389 44.4147 264.741 42.932 265.445 41.588C266.149 40.2227 267.184 39.1347 268.549 38.324C269.915 37.492 271.6 37.076 273.605 37.076C275.611 37.076 277.296 37.4814 278.661 38.292C280.027 39.1027 281.061 40.1694 281.765 41.492C282.469 42.8147 282.821 44.2547 282.821 45.812C282.821 46.132 282.8 46.4627 282.757 46.804C282.736 47.124 282.704 47.412 282.661 47.668H270.853C270.896 48.2654 271.056 48.756 271.333 49.14C271.632 49.5027 271.995 49.7694 272.421 49.94C272.869 50.1107 273.328 50.196 273.797 50.196C274.459 50.196 275.077 50.0467 275.653 49.748C276.251 49.4494 276.645 49.0334 276.837 48.5L281.989 49.972C281.541 50.868 280.912 51.6574 280.101 52.34C279.312 53.0227 278.373 53.5667 277.285 53.972C276.197 54.356 274.971 54.548 273.605 54.548ZM270.725 44.02H276.293C276.229 43.4654 276.069 42.996 275.813 42.612C275.579 42.228 275.259 41.9294 274.853 41.716C274.469 41.5027 274.021 41.396 273.509 41.396C272.997 41.396 272.539 41.5027 272.133 41.716C271.749 41.9294 271.429 42.228 271.173 42.612C270.939 42.996 270.789 43.4654 270.725 44.02ZM298.469 54.228C297.381 54.228 296.378 54.0147 295.461 53.588C294.565 53.1614 293.797 52.564 293.157 51.796C292.517 51.028 292.015 50.132 291.653 49.108C291.311 48.084 291.141 46.9747 291.141 45.78C291.141 44.5214 291.333 43.3694 291.717 42.324C292.101 41.2574 292.634 40.3294 293.317 39.54C294.021 38.7507 294.853 38.1427 295.813 37.716C296.773 37.2894 297.829 37.076 298.981 37.076C300.175 37.076 301.231 37.3214 302.149 37.812C303.087 38.2814 303.823 38.9747 304.357 39.892V37.396H309.637V52.692C309.637 54.4414 309.21 55.9667 308.357 57.268C307.503 58.5694 306.309 59.572 304.773 60.276C303.237 61.0014 301.445 61.364 299.397 61.364C297.626 61.364 296.069 61.0867 294.725 60.532C293.402 59.9774 292.229 59.1774 291.205 58.132L294.405 54.804C295.023 55.38 295.759 55.86 296.613 56.244C297.487 56.6494 298.415 56.852 299.397 56.852C300.143 56.852 300.826 56.7134 301.445 56.436C302.085 56.1587 302.597 55.7107 302.981 55.092C303.365 54.4947 303.557 53.6947 303.557 52.692V51.604C303.087 52.4787 302.383 53.14 301.445 53.588C300.527 54.0147 299.535 54.228 298.469 54.228ZM300.645 49.428C300.943 49.428 301.221 49.396 301.477 49.332C301.754 49.2467 302.01 49.14 302.245 49.012C302.479 48.8627 302.703 48.6814 302.917 48.468C303.151 48.2334 303.365 47.9774 303.557 47.7V44.692C303.365 44.18 303.098 43.7427 302.757 43.38C302.415 42.996 302.042 42.708 301.637 42.516C301.231 42.3027 300.815 42.196 300.389 42.196C299.962 42.196 299.557 42.292 299.173 42.484C298.81 42.676 298.49 42.9534 298.213 43.316C297.935 43.6574 297.722 44.052 297.573 44.5C297.423 44.948 297.349 45.428 297.349 45.94C297.349 46.452 297.423 46.9214 297.573 47.348C297.743 47.7747 297.978 48.148 298.277 48.468C298.575 48.7667 298.927 49.0014 299.333 49.172C299.738 49.3427 300.175 49.428 300.645 49.428ZM311.796 49.14C311.796 48.0094 312.105 47.0174 312.724 46.164C313.342 45.2894 314.196 44.6067 315.284 44.116C316.393 43.6254 317.652 43.38 319.06 43.38C319.721 43.38 320.34 43.4334 320.916 43.54C321.513 43.6467 322.025 43.8067 322.452 44.02V43.508C322.452 42.7187 322.217 42.132 321.748 41.748C321.3 41.364 320.564 41.172 319.54 41.172C318.601 41.172 317.716 41.332 316.884 41.652C316.073 41.9507 315.22 42.3987 314.324 42.996L312.564 39.22C313.694 38.4947 314.878 37.9614 316.116 37.62C317.374 37.2574 318.718 37.076 320.148 37.076C322.814 37.076 324.873 37.684 326.324 38.9C327.796 40.0947 328.532 41.876 328.532 44.244V47.508C328.532 48.084 328.617 48.4894 328.788 48.724C328.958 48.9374 329.257 49.0654 329.684 49.108V54.228C329.193 54.3347 328.724 54.4094 328.276 54.452C327.849 54.516 327.465 54.548 327.124 54.548C326.036 54.548 325.204 54.356 324.628 53.972C324.073 53.5667 323.71 52.98 323.54 52.212L323.412 51.604C322.665 52.564 321.801 53.3 320.82 53.812C319.838 54.3027 318.793 54.548 317.684 54.548C316.574 54.548 315.572 54.3134 314.676 53.844C313.78 53.3747 313.076 52.7347 312.564 51.924C312.052 51.092 311.796 50.164 311.796 49.14ZM321.652 49.556C321.886 49.3854 322.078 49.204 322.228 49.012C322.377 48.7987 322.452 48.5854 322.452 48.372V47.124C322.11 46.996 321.716 46.8894 321.268 46.804C320.841 46.7187 320.457 46.676 320.116 46.676C319.39 46.676 318.772 46.8574 318.26 47.22C317.769 47.5827 317.524 48.0414 317.524 48.596C317.524 48.8947 317.609 49.172 317.78 49.428C317.95 49.6627 318.185 49.8547 318.484 50.004C318.782 50.132 319.124 50.196 319.508 50.196C319.87 50.196 320.244 50.1427 320.628 50.036C321.033 49.908 321.374 49.748 321.652 49.556ZM338.632 54.548C337.16 54.548 335.709 54.3134 334.28 53.844C332.872 53.3534 331.677 52.6494 330.696 51.732L332.776 47.988C333.821 48.6707 334.824 49.204 335.784 49.588C336.765 49.972 337.65 50.164 338.44 50.164C338.888 50.164 339.218 50.1107 339.432 50.004C339.645 49.876 339.752 49.6734 339.752 49.396C339.752 49.204 339.677 49.044 339.528 48.916C339.378 48.788 339.133 48.66 338.792 48.532C338.472 48.404 338.056 48.2654 337.544 48.116C336.221 47.6467 335.112 47.2094 334.216 46.804C333.341 46.3987 332.68 45.908 332.232 45.332C331.805 44.7347 331.592 43.9454 331.592 42.964C331.592 41.812 331.88 40.7987 332.456 39.924C333.032 39.028 333.853 38.324 334.92 37.812C336.008 37.3 337.309 37.044 338.824 37.044C339.954 37.044 341.085 37.2254 342.216 37.588C343.368 37.9294 344.477 38.5587 345.544 39.476L343.24 43.188C342.173 42.5267 341.266 42.0574 340.52 41.78C339.794 41.5027 339.144 41.364 338.568 41.364C338.29 41.364 338.045 41.396 337.832 41.46C337.64 41.524 337.49 41.62 337.384 41.748C337.277 41.876 337.224 42.0467 337.224 42.26C337.224 42.4734 337.298 42.6547 337.448 42.804C337.597 42.932 337.832 43.06 338.152 43.188C338.472 43.2947 338.877 43.4227 339.368 43.572C340.818 43.9987 342.002 44.436 342.92 44.884C343.837 45.3107 344.509 45.8334 344.936 46.452C345.384 47.0707 345.608 47.8814 345.608 48.884C345.608 50.6547 344.978 52.0414 343.72 53.044C342.482 54.0467 340.786 54.548 338.632 54.548ZM359.532 53.3C358.977 53.5347 358.38 53.7587 357.74 53.972C357.121 54.164 356.481 54.3134 355.82 54.42C355.18 54.5267 354.55 54.58 353.932 54.58C353.014 54.58 352.172 54.4307 351.404 54.132C350.636 53.812 350.017 53.3 349.548 52.596C349.1 51.8707 348.876 50.9 348.876 49.684V41.972H346.796V37.396H348.876V32.116H354.956V37.396H358.252V41.972H354.956V47.54C354.956 48.0947 355.073 48.4894 355.308 48.724C355.542 48.9374 355.862 49.044 356.268 49.044C356.566 49.044 356.908 48.9907 357.292 48.884C357.676 48.7774 358.06 48.6494 358.444 48.5L359.532 53.3ZM360.327 49.14C360.327 48.0094 360.636 47.0174 361.255 46.164C361.873 45.2894 362.727 44.6067 363.815 44.116C364.924 43.6254 366.183 43.38 367.591 43.38C368.252 43.38 368.871 43.4334 369.447 43.54C370.044 43.6467 370.556 43.8067 370.983 44.02V43.508C370.983 42.7187 370.748 42.132 370.279 41.748C369.831 41.364 369.095 41.172 368.071 41.172C367.132 41.172 366.247 41.332 365.415 41.652C364.604 41.9507 363.751 42.3987 362.855 42.996L361.095 39.22C362.225 38.4947 363.409 37.9614 364.647 37.62C365.905 37.2574 367.249 37.076 368.679 37.076C371.345 37.076 373.404 37.684 374.855 38.9C376.327 40.0947 377.063 41.876 377.063 44.244V47.508C377.063 48.084 377.148 48.4894 377.319 48.724C377.489 48.9374 377.788 49.0654 378.215 49.108V54.228C377.724 54.3347 377.255 54.4094 376.807 54.452C376.38 54.516 375.996 54.548 375.655 54.548C374.567 54.548 373.735 54.356 373.159 53.972C372.604 53.5667 372.241 52.98 372.071 52.212L371.943 51.604C371.196 52.564 370.332 53.3 369.351 53.812C368.369 54.3027 367.324 54.548 366.215 54.548C365.105 54.548 364.103 54.3134 363.207 53.844C362.311 53.3747 361.607 52.7347 361.095 51.924C360.583 51.092 360.327 50.164 360.327 49.14ZM370.183 49.556C370.417 49.3854 370.609 49.204 370.759 49.012C370.908 48.7987 370.983 48.5854 370.983 48.372V47.124C370.641 46.996 370.247 46.8894 369.799 46.804C369.372 46.7187 368.988 46.676 368.647 46.676C367.921 46.676 367.303 46.8574 366.791 47.22C366.3 47.5827 366.055 48.0414 366.055 48.596C366.055 48.8947 366.14 49.172 366.311 49.428C366.481 49.6627 366.716 49.8547 367.015 50.004C367.313 50.132 367.655 50.196 368.039 50.196C368.401 50.196 368.775 50.1427 369.159 50.036C369.564 49.908 369.905 49.748 370.183 49.556ZM9.824 84.548C8.352 84.548 7.04 84.324 5.888 83.876C4.736 83.4067 3.76533 82.7774 2.976 81.988C2.208 81.1987 1.62133 80.292 1.216 79.268C0.810667 78.244 0.608 77.1667 0.608 76.036C0.608 74.4147 0.96 72.932 1.664 71.588C2.368 70.2227 3.40267 69.1347 4.768 68.324C6.13333 67.492 7.81867 67.076 9.824 67.076C11.8293 67.076 13.5147 67.4814 14.88 68.292C16.2453 69.1027 17.28 70.1694 17.984 71.492C18.688 72.8147 19.04 74.2547 19.04 75.812C19.04 76.132 19.0187 76.4627 18.976 76.804C18.9547 77.124 18.9227 77.412 18.88 77.668H7.072C7.11467 78.2654 7.27467 78.756 7.552 79.14C7.85067 79.5027 8.21333 79.7694 8.64 79.94C9.088 80.1107 9.54667 80.196 10.016 80.196C10.6773 80.196 11.296 80.0467 11.872 79.748C12.4693 79.4494 12.864 79.0334 13.056 78.5L18.208 79.972C17.76 80.868 17.1307 81.6574 16.32 82.34C15.5307 83.0227 14.592 83.5667 13.504 83.972C12.416 84.356 11.1893 84.548 9.824 84.548ZM6.944 74.02H12.512C12.448 73.4654 12.288 72.996 12.032 72.612C11.7973 72.228 11.4773 71.9294 11.072 71.716C10.688 71.5027 10.24 71.396 9.728 71.396C9.216 71.396 8.75733 71.5027 8.352 71.716C7.968 71.9294 7.648 72.228 7.392 72.612C7.15733 72.996 7.008 73.4654 6.944 74.02ZM48.172 84.228H42.092V74.756C42.092 73.924 41.9213 73.3267 41.58 72.964C41.26 72.58 40.8653 72.388 40.396 72.388C39.9267 72.388 39.4147 72.612 38.86 73.06C38.3053 73.508 37.9 74.084 37.644 74.788V84.228H31.564V74.756C31.564 73.924 31.3933 73.3267 31.052 72.964C30.732 72.58 30.3373 72.388 29.868 72.388C29.3987 72.388 28.8867 72.612 28.332 73.06C27.7773 73.508 27.372 74.084 27.116 74.788V84.228H21.036V67.396H26.508V69.892C27.1053 68.9747 27.9267 68.2814 28.972 67.812C30.0173 67.3214 31.2547 67.076 32.684 67.076C34.0707 67.076 35.116 67.3747 35.82 67.972C36.524 68.5694 36.9933 69.2414 37.228 69.988C37.8253 69.0707 38.6467 68.356 39.692 67.844C40.7373 67.332 41.9107 67.076 43.212 67.076C44.3213 67.076 45.2067 67.2787 45.868 67.684C46.5293 68.0894 47.02 68.612 47.34 69.252C47.6813 69.892 47.9053 70.564 48.012 71.268C48.1187 71.9507 48.172 72.58 48.172 73.156V84.228ZM70.1253 83.3C69.5706 83.5347 68.9733 83.7587 68.3333 83.972C67.7146 84.164 67.0746 84.3134 66.4133 84.42C65.7733 84.5267 65.1439 84.58 64.5253 84.58C63.6079 84.58 62.7653 84.4307 61.9973 84.132C61.2293 83.812 60.6106 83.3 60.1413 82.596C59.6933 81.8707 59.4693 80.9 59.4693 79.684V71.972H57.3893V67.396H59.4693V62.116H65.5493V67.396H68.8453V71.972H65.5493V77.54C65.5493 78.0947 65.6666 78.4894 65.9013 78.724C66.1359 78.9374 66.4559 79.044 66.8613 79.044C67.1599 79.044 67.5013 78.9907 67.8853 78.884C68.2693 78.7774 68.6533 78.6494 69.0373 78.5L70.1253 83.3ZM70.9205 79.14C70.9205 78.0094 71.2298 77.0174 71.8485 76.164C72.4672 75.2894 73.3205 74.6067 74.4085 74.116C75.5178 73.6254 76.7765 73.38 78.1845 73.38C78.8458 73.38 79.4645 73.4334 80.0405 73.54C80.6378 73.6467 81.1498 73.8067 81.5765 74.02V73.508C81.5765 72.7187 81.3418 72.132 80.8725 71.748C80.4245 71.364 79.6885 71.172 78.6645 71.172C77.7258 71.172 76.8405 71.332 76.0085 71.652C75.1978 71.9507 74.3445 72.3987 73.4485 72.996L71.6885 69.22C72.8192 68.4947 74.0032 67.9614 75.2405 67.62C76.4992 67.2574 77.8432 67.076 79.2725 67.076C81.9392 67.076 83.9978 67.684 85.4485 68.9C86.9205 70.0947 87.6565 71.876 87.6565 74.244V77.508C87.6565 78.084 87.7418 78.4894 87.9125 78.724C88.0832 78.9374 88.3818 79.0654 88.8085 79.108V84.228C88.3178 84.3347 87.8485 84.4094 87.4005 84.452C86.9738 84.516 86.5898 84.548 86.2485 84.548C85.1605 84.548 84.3285 84.356 83.7525 83.972C83.1978 83.5667 82.8352 82.98 82.6645 82.212L82.5365 81.604C81.7898 82.564 80.9258 83.3 79.9445 83.812C78.9632 84.3027 77.9178 84.548 76.8085 84.548C75.6992 84.548 74.6965 84.3134 73.8005 83.844C72.9045 83.3747 72.2005 82.7347 71.6885 81.924C71.1765 81.092 70.9205 80.164 70.9205 79.14ZM80.7765 79.556C81.0112 79.3854 81.2032 79.204 81.3525 79.012C81.5018 78.7987 81.5765 78.5854 81.5765 78.372V77.124C81.2352 76.996 80.8405 76.8894 80.3925 76.804C79.9658 76.7187 79.5818 76.676 79.2405 76.676C78.5152 76.676 77.8965 76.8574 77.3845 77.22C76.8938 77.5827 76.6485 78.0414 76.6485 78.596C76.6485 78.8947 76.7338 79.172 76.9045 79.428C77.0752 79.6627 77.3098 79.8547 77.6085 80.004C77.9072 80.132 78.2485 80.196 78.6325 80.196C78.9952 80.196 79.3685 80.1427 79.7525 80.036C80.1578 79.908 80.4992 79.748 80.7765 79.556ZM102.429 72.58C101.255 72.58 100.189 72.708 99.2288 72.964C98.2688 73.22 97.5541 73.6467 97.0848 74.244V84.228H91.0048V67.396H96.5728V70.596C97.1701 69.4654 97.9168 68.6014 98.8128 68.004C99.7088 67.3854 100.658 67.076 101.661 67.076C101.895 67.076 102.055 67.076 102.141 67.076C102.247 67.076 102.343 67.0867 102.429 67.108V72.58ZM112.605 84.548C111.133 84.548 109.821 84.324 108.669 83.876C107.517 83.4067 106.547 82.7774 105.757 81.988C104.989 81.1987 104.403 80.292 103.997 79.268C103.592 78.244 103.389 77.1667 103.389 76.036C103.389 74.4147 103.741 72.932 104.445 71.588C105.149 70.2227 106.184 69.1347 107.549 68.324C108.915 67.492 110.6 67.076 112.605 67.076C114.611 67.076 116.296 67.4814 117.661 68.292C119.027 69.1027 120.061 70.1694 120.765 71.492C121.469 72.8147 121.821 74.2547 121.821 75.812C121.821 76.132 121.8 76.4627 121.757 76.804C121.736 77.124 121.704 77.412 121.661 77.668H109.853C109.896 78.2654 110.056 78.756 110.333 79.14C110.632 79.5027 110.995 79.7694 111.421 79.94C111.869 80.1107 112.328 80.196 112.797 80.196C113.459 80.196 114.077 80.0467 114.653 79.748C115.251 79.4494 115.645 79.0334 115.837 78.5L120.989 79.972C120.541 80.868 119.912 81.6574 119.101 82.34C118.312 83.0227 117.373 83.5667 116.285 83.972C115.197 84.356 113.971 84.548 112.605 84.548ZM109.725 74.02H115.293C115.229 73.4654 115.069 72.996 114.813 72.612C114.579 72.228 114.259 71.9294 113.853 71.716C113.469 71.5027 113.021 71.396 112.509 71.396C111.997 71.396 111.539 71.5027 111.133 71.716C110.749 71.9294 110.429 72.228 110.173 72.612C109.939 72.996 109.789 73.4654 109.725 74.02ZM125.001 84.228V73.924H122.921V69.348H125.001V67.524C125.001 66.116 125.257 64.8894 125.769 63.844C126.281 62.7987 126.996 61.988 127.913 61.412C128.852 60.836 129.94 60.548 131.177 60.548C131.903 60.548 132.649 60.6334 133.417 60.804C134.185 60.9534 134.996 61.188 135.849 61.508L134.825 66.116C134.484 65.988 134.1 65.8814 133.673 65.796C133.247 65.7107 132.873 65.668 132.553 65.668C132.063 65.668 131.689 65.8067 131.433 66.084C131.199 66.34 131.081 66.7454 131.081 67.3V69.348H134.761V73.924H131.081V84.228H125.001ZM135.577 79.14C135.577 78.0094 135.886 77.0174 136.505 76.164C137.123 75.2894 137.977 74.6067 139.065 74.116C140.174 73.6254 141.433 73.38 142.841 73.38C143.502 73.38 144.121 73.4334 144.697 73.54C145.294 73.6467 145.806 73.8067 146.233 74.02V73.508C146.233 72.7187 145.998 72.132 145.529 71.748C145.081 71.364 144.345 71.172 143.321 71.172C142.382 71.172 141.497 71.332 140.665 71.652C139.854 71.9507 139.001 72.3987 138.105 72.996L136.345 69.22C137.475 68.4947 138.659 67.9614 139.897 67.62C141.155 67.2574 142.499 67.076 143.929 67.076C146.595 67.076 148.654 67.684 150.105 68.9C151.577 70.0947 152.313 71.876 152.313 74.244V77.508C152.313 78.084 152.398 78.4894 152.569 78.724C152.739 78.9374 153.038 79.0654 153.465 79.108V84.228C152.974 84.3347 152.505 84.4094 152.057 84.452C151.63 84.516 151.246 84.548 150.905 84.548C149.817 84.548 148.985 84.356 148.409 83.972C147.854 83.5667 147.491 82.98 147.321 82.212L147.193 81.604C146.446 82.564 145.582 83.3 144.601 83.812C143.619 84.3027 142.574 84.548 141.465 84.548C140.355 84.548 139.353 84.3134 138.457 83.844C137.561 83.3747 136.857 82.7347 136.345 81.924C135.833 81.092 135.577 80.164 135.577 79.14ZM145.433 79.556C145.667 79.3854 145.859 79.204 146.009 79.012C146.158 78.7987 146.233 78.5854 146.233 78.372V77.124C145.891 76.996 145.497 76.8894 145.049 76.804C144.622 76.7187 144.238 76.676 143.897 76.676C143.171 76.676 142.553 76.8574 142.041 77.22C141.55 77.5827 141.305 78.0414 141.305 78.596C141.305 78.8947 141.39 79.172 141.561 79.428C141.731 79.6627 141.966 79.8547 142.265 80.004C142.563 80.132 142.905 80.196 143.289 80.196C143.651 80.196 144.025 80.1427 144.409 80.036C144.814 79.908 145.155 79.748 145.433 79.556ZM162.413 84.548C160.941 84.548 159.49 84.3134 158.061 83.844C156.653 83.3534 155.458 82.6494 154.477 81.732L156.557 77.988C157.602 78.6707 158.605 79.204 159.565 79.588C160.546 79.972 161.432 80.164 162.221 80.164C162.669 80.164 163 80.1107 163.213 80.004C163.426 79.876 163.533 79.6734 163.533 79.396C163.533 79.204 163.458 79.044 163.309 78.916C163.16 78.788 162.914 78.66 162.573 78.532C162.253 78.404 161.837 78.2654 161.325 78.116C160.002 77.6467 158.893 77.2094 157.997 76.804C157.122 76.3987 156.461 75.908 156.013 75.332C155.586 74.7347 155.373 73.9454 155.373 72.964C155.373 71.812 155.661 70.7987 156.237 69.924C156.813 69.028 157.634 68.324 158.701 67.812C159.789 67.3 161.09 67.044 162.605 67.044C163.736 67.044 164.866 67.2254 165.997 67.588C167.149 67.9294 168.258 68.5587 169.325 69.476L167.021 73.188C165.954 72.5267 165.048 72.0574 164.301 71.78C163.576 71.5027 162.925 71.364 162.349 71.364C162.072 71.364 161.826 71.396 161.613 71.46C161.421 71.524 161.272 71.62 161.165 71.748C161.058 71.876 161.005 72.0467 161.005 72.26C161.005 72.4734 161.08 72.6547 161.229 72.804C161.378 72.932 161.613 73.06 161.933 73.188C162.253 73.2947 162.658 73.4227 163.149 73.572C164.6 73.9987 165.784 74.436 166.701 74.884C167.618 75.3107 168.29 75.8334 168.717 76.452C169.165 77.0707 169.389 77.8814 169.389 78.884C169.389 80.6547 168.76 82.0414 167.501 83.044C166.264 84.0467 164.568 84.548 162.413 84.548Z" fill="#F7CFCA"/>
</svg>
